<svg width="128" height="128" viewBox="0 0 128 128" fill="none" xmlns="http://www.w3.org/2000/svg">
<g clip-path="url(#clip0_89_262)">
<rect width="128" height="128" fill="#37E2D5"/>
<path d="M95.8068 39.1818H106.307V88.6818C106.307 93.1591 105.42 96.9886 103.648 100.17C101.898 103.352 99.4318 105.784 96.25 107.466C93.0682 109.125 89.3409 109.955 85.0682 109.955C81.1364 109.955 77.6023 109.239 74.4659 107.807C71.3523 106.375 68.8864 104.295 67.0682 101.568C65.2727 98.8182 64.375 95.4773 64.375 91.5455H74.8409C74.8409 93.4773 75.2841 95.1477 76.1705 96.5568C77.0795 97.9659 78.3182 99.0682 79.8864 99.8636C81.4773 100.636 83.2955 101.023 85.3409 101.023C87.5682 101.023 89.4545 100.557 91 99.625C92.5682 98.6705 93.7614 97.2727 94.5795 95.4318C95.3977 93.5909 95.8068 91.3409 95.8068 88.6818V39.1818Z" fill="#FEFEFE"/>
</g>
<defs>
<clipPath id="clip0_89_262">
<rect width="128" height="128" fill="white"/>
</clipPath>
</defs>
</svg>
